# xmcd
#
# Track frame offsets: 
#        150
#        13217
#        28645
#        44282
#        59783
#        76716
#        90936
#        106706
#        120875
#        132351
#        148280
#        163969
#        183600
#        205045
#        218276
#        236731
#        252732
#        268098
#        280626
#
# Disc length: 3994 seconds
#
# Revision: 0
# Processed by: cddbd v1.5.2PL0 Copyright (c) Steve Scherf et al.
# Submitted via: ExactAudioCopyFreeDBPlugin 1.0
#
DISCID=0d0f9813
DTITLE=Danny June Smith - Phoenix
DYEAR=2017
DGENRE=Country
TTITLE0=Valki Rider
TTITLE1=Gerüchte (Der einsame Trucker)
TTITLE2=The Sinwaltz
TTITLE3=Diese Welt
TTITLE4=Gone for the Roses
TTITLE5=Ich fühl dich nicht
TTITLE6=Run
TTITLE7=Dankbarkeit
TTITLE8=Sweet little Angel
TTITLE9=Der Phoenix
TTITLE10=Summer's Ending
TTITLE11=Nicht schlechter als dein Wein
TTITLE12=Freie Sicht
TTITLE13=Lumberjack
TTITLE14=Abschied
TTITLE15=Endlich bist du da
TTITLE16=It's Muchtoo Late (Duet with Danah Heiser)
TTITLE17=Der Zirkus (von Clowns und Helden)
TTITLE18=Ich bleib bei dir
EXTD=
EXTT0=
EXTT1=
EXTT2=
EXTT3=
EXTT4=
EXTT5=
EXTT6=
EXTT7=
EXTT8=
EXTT9=
EXTT10=
EXTT11=
EXTT12=
EXTT13=
EXTT14=
EXTT15=
EXTT16=
EXTT17=
EXTT18=
PLAYORDER=
